<svg xmlns="http://www.w3.org/2000/svg" width="430" height="430" fill="none" viewBox="0 0 430 430"><path fill="#2ca58d" fill-rule="evenodd" d="m115.735 308.051-5.369 28.574 26.714-10.064 12.227 6.938c20.691 11.741 44.612 18.456 70.193 18.456 78.688 0 142.477-63.789 142.477-142.477S298.188 67 219.5 67 77.022 130.79 77.022 209.478c0 33.194 11.315 63.662 30.318 87.875zM76.024 381.62c-2.19.825-4.438-1.062-4.006-3.361l11.722-62.384c-23.001-29.309-36.717-66.251-36.717-106.397C47.023 114.221 124.243 37 219.5 37c95.256 0 172.477 77.221 172.477 172.478 0 95.256-77.221 172.477-172.477 172.477-30.905 0-59.912-8.128-84.999-22.364z" clip-rule="evenodd"/><path fill="#2ca58d" d="m137.08 326.561 12.227 6.938c20.691 11.741 44.612 18.456 70.193 18.456v30c-30.905 0-59.912-8.128-84.999-22.364L76.024 381.62c-2.19.825-4.438-1.062-4.006-3.361l11.722-62.384c-23.001-29.309-36.717-66.251-36.717-106.397C47.023 114.221 124.243 37 219.5 37v30c-78.688 0-142.478 63.79-142.478 142.478 0 33.194 11.315 63.662 30.318 87.875l8.395 10.698-5.369 28.574z" opacity=".4" style="mix-blend-mode:multiply"/><path fill="#2ca58d" d="M163.18 120.573c-2.405-3.367-14.91 8.451-27.828 26.316s-1.58 54.144 25.217 80.941l41.776 41.776c26.797 26.797 63.007 37.997 80.735 24.942 17.727-13.055 29.82-25.286 27.003-27.347s-11.337-8.245-19.033-13.88c-7.696-5.634-15.872-11.543-18.208-13.261s-8.864 1.443-14.498 7.078-12.299 8.107-14.842 5.565l-32.568-32.569-33.531-33.53c-3.092-3.092-1.031-10.169 4.604-15.804s8.657-12.368 6.733-14.979a2556 2556 0 0 0-12.368-16.971c-4.809-6.665-10.718-14.91-13.192-18.277"/><path fill="#2ca58d" d="m163.325 120.771-.145-.198c-2.405-3.367-14.91 8.451-27.828 26.316s-1.58 54.144 25.217 80.941l41.776 41.776c26.797 26.797 63.007 37.997 80.735 24.942a252 252 0 0 0 8.545-6.572c-19.094 6.986-50.419-4.509-74.28-28.37l-41.776-41.776c-26.797-26.797-38.134-63.076-25.217-80.941 4.513-6.24 8.975-11.743 12.973-16.118M270.532 239.63c-2.878 2.248-5.802 3.653-8.155 3.992 3.051-2.296 6.019-3.745 8.155-3.992" opacity=".4" style="mix-blend-mode:multiply"/></svg>